<?xml version="1.0" encoding="UTF-8"?>
<svg width="39px" height="44px" viewBox="0 0 39 44" version="1.1" xmlns="http://www.w3.org/2000/svg" xmlns:xlink="http://www.w3.org/1999/xlink">
    <!-- Generator: Sketch 61 (89581) - https://sketch.com -->
    <title>Left Black Logo Large</title>
    <desc>Created with Sketch.</desc>
    <g id="Left-Black-Logo-Large" stroke="none" stroke-width="1" fill="none" fill-rule="evenodd">
        <rect id="Rectangle" fill="#FFFFFF" x="0" y="0" width="39" height="44"></rect>
        <path d="M19.8196726,13.1384615 C20.902953,13.1384615 22.2608678,12.406103 23.0695137,11.4296249 C23.8018722,10.5446917 24.3358837,9.30883662 24.3358837,8.07298156 C24.3358837,7.9051494 24.3206262,7.73731723 24.2901113,7.6 C23.0847711,7.64577241 21.6353115,8.4086459 20.7656357,9.43089638 C20.0790496,10.2090273 19.4534933,11.4296249 19.4534933,12.6807374 C19.4534933,12.8638271 19.4840083,13.0469167 19.4992657,13.1079466 C19.5755531,13.1232041 19.6976128,13.1384615 19.8196726,13.1384615 Z M16.0053051,31.6 C17.4852797,31.6 18.1413509,30.6082645 19.9875048,30.6082645 C21.8641736,30.6082645 22.2761252,31.5694851 23.923932,31.5694851 C25.5412238,31.5694851 26.6245041,30.074253 27.6467546,28.6095359 C28.7910648,26.9312142 29.2640464,25.2834075 29.2945613,25.2071202 C29.1877591,25.1766052 26.0904927,23.9102352 26.0904927,20.3552448 C26.0904927,17.2732359 28.5316879,15.8848061 28.6690051,15.7780038 C27.0517133,13.4588684 24.5952606,13.3978385 23.923932,13.3978385 C22.1082931,13.3978385 20.6283185,14.4963764 19.6976128,14.4963764 C18.6906198,14.4963764 17.36322,13.4588684 15.7917006,13.4588684 C12.8012365,13.4588684 9.765,15.9305785 9.765,20.5993643 C9.765,23.4982835 10.8940528,26.565035 12.2824825,28.548506 C13.4725652,30.2268277 14.5100731,31.6 16.0053051,31.6 Z" id="" fill="#000000" fill-rule="nonzero"></path>
    </g>
</svg>